<svg fill="currentColor" fill-rule="evenodd" height="1em" style="flex:none;line-height:1" viewBox="0 0 24 24" width="1em" xmlns="http://www.w3.org/2000/svg"><title>Baidu Qianfan</title><path d="M7.3 5.5c.97 0 1.75.95 1.75 2.1 0 1.16-.78 2.1-1.75 2.1S5.55 8.76 5.55 7.6c0-1.15.78-2.1 1.75-2.1zm9.4 0c.97 0 1.75.95 1.75 2.1 0 1.16-.78 2.1-1.75 2.1s-1.75-.94-1.75-2.1c0-1.15.78-2.1 1.75-2.1zm-6.32 1.06c1.04 0 1.88 1.02 1.88 2.27S11.42 11.1 10.38 11.1c-1.05 0-1.89-1.02-1.89-2.27s.84-2.27 1.89-2.27zm3.24 0c1.04 0 1.88 1.02 1.88 2.27S14.66 11.1 13.62 11.1c-1.05 0-1.89-1.02-1.89-2.27s.84-2.27 1.89-2.27zM12 12.05c2.45 0 4.45 2 4.45 4.45a3 3 0 01-3 3c-.55 0-1.1-.18-1.45-.45-.35.27-.9.45-1.45.45a3 3 0 01-3-3c0-2.45 2-4.45 4.45-4.45z"/></svg>
